<svg width="20" height="18" xmlns="http://www.w3.org/2000/svg"><g fill="#0078D4" fill-rule="evenodd"><path d="M2.743 4.625L.524 2.51A1.25 1.25 0 011.386.354h9.996c4.765 0 8.64 3.875 8.64 8.64 0 4.764-3.876 8.64-8.64 8.64-4.764 0-8.639-3.876-8.639-8.64v-4.37zm-.734-2.77L4.01 3.76a.75.75 0 01.233.543v4.691c0 3.936 3.204 7.14 7.14 7.14 3.935 0 7.138-3.204 7.138-7.14 0-3.937-3.203-7.14-7.139-7.14H2.01z"/><path d="M14.625 10.277a.75.75 0 110 1.5H8.327a.75.75 0 010-1.5h6.298zm0-4.135a.75.75 0 110 1.5H8.327a.75.75 0 110-1.5h6.298z"/></g></svg>