<svg width="20" height="16" xmlns="http://www.w3.org/2000/svg"><g fill="#0078D4" fill-rule="evenodd"><path d="M6.5 9.135a4.25 4.25 0 110-8.5 4.25 4.25 0 010 8.5zm0-1.5a2.75 2.75 0 100-5.5 2.75 2.75 0 000 5.5zm8.5.125a2.75 2.75 0 110-5.5 2.75 2.75 0 010 5.5zm0-1.5a1.25 1.25 0 100-2.5 1.25 1.25 0 000 2.5z"/><path d="M12.75 14.615a.75.75 0 11-1.5 0 4.75 4.75 0 10-9.5 0 .75.75 0 11-1.5 0 6.25 6.25 0 1112.5 0zm7-3.23a.75.75 0 11-1.5 0c0-2.014-1.49-3.625-3.298-3.625-.911 0-1.765.408-2.386 1.123a.75.75 0 01-1.132-.984c.9-1.035 2.162-1.639 3.518-1.639 2.663 0 4.798 2.307 4.798 5.125z"/></g></svg>