<svg xmlns="http://www.w3.org/2000/svg" width="20" height="23"><path fill="#0078D4" fill-rule="evenodd" d="M2.074 20.09c-2.588-2.588-2.588-6.902 0-9.491l9.06-9.06a4.896 4.896 0 016.904 0 4.896 4.896 0 010 6.903l-7.335 7.334a3.021 3.021 0 01-4.314 0 3.021 3.021 0 010-4.314L12.86 4.99l1.295 1.294-6.472 6.472c-.518.518-.518 1.208 0 1.726s1.208.518 1.726 0l7.335-7.335a3.021 3.021 0 000-4.314 3.021 3.021 0 00-4.315 0l-9.06 9.06a4.896 4.896 0 000 6.903 4.896 4.896 0 006.903 0l8.197-8.197 1.295 1.294-8.198 8.198c-2.589 2.588-6.903 2.588-9.492 0z"/></svg>